# xmcd CD database file
#
# Track frame offsets:
#	150
#	17269
#	33336
#	67952
#	88838
#	112715
#	129845
#	144921
#	158430
#	185854
#	211266
#	231628
#	245676
#	267113
#
# Disc length: 3774 seconds
#
# Revision: 0
# Processed by: cddbd v1.5.1PL0 Copyright (c) Steve Scherf et al.
# Submitted via: CDex 1.51
#
DISCID=b20ebc0e
DTITLE=the re-mains - thank you for supporting country rock'n'roll
DYEAR=2003
DGENRE=Country
TTITLE0=lil' lady luck
TTITLE1=sick sister
TTITLE2=history of flies
TTITLE3=folk singer blues
TTITLE4=walk slowly
TTITLE5=day in the sun
TTITLE6=hot blood
TTITLE7=in the wake of britney spears
TTITLE8=i ain't goin' back
TTITLE9=you got to break before you can bend
TTITLE10=hole for a heart
TTITLE11=gold wig
TTITLE12=bye bye byron bay
TTITLE13=smitty's blues
EXTD=YEAR: 2003
EXTT0=
EXTT1=
EXTT2=
EXTT3=
EXTT4=
EXTT5=
EXTT6=
EXTT7=
EXTT8=
EXTT9=
EXTT10=
EXTT11=
EXTT12=
EXTT13=
PLAYORDER=
